<?xml version="1.0" encoding="UTF-8" standalone="no"?><svg xmlns="http://www.w3.org/2000/svg" xmlns:xlink="http://www.w3.org/1999/xlink" contentScriptType="application/ecmascript" contentStyleType="text/css" height="431px" preserveAspectRatio="none" style="width:1148px;height:431px;" version="1.1" viewBox="0 0 1148 431" width="1148px" zoomAndPan="magnify"><defs><filter height="300%" id="f1a3jznw53bp40" width="300%" x="-1" y="-1"><feGaussianBlur result="blurOut" stdDeviation="2.0"/><feColorMatrix in="blurOut" result="blurOut2" type="matrix" values="0 0 0 0 0 0 0 0 0 0 0 0 0 0 0 0 0 0 .4 0"/><feOffset dx="4.0" dy="4.0" in="blurOut2" result="blurOut3"/><feBlend in="SourceGraphic" in2="blurOut3" mode="normal"/></filter></defs><g><!--MD5=[e3d83ec5fd90ea9f3f2bfe265cb53458]
class Status--><rect fill="#FEFECE" filter="url(#f1a3jznw53bp40)" height="91.2188" id="Status" style="stroke: #A80036; stroke-width: 1.5;" width="70" x="761" y="14.5"/><ellipse cx="776.45" cy="30.5" fill="#EB937F" rx="11" ry="11" style="stroke: #A80036; stroke-width: 1.0;"/><path d="M775.2469,31.375 L776.7,31.375 L776.7,31.4844 C776.7,31.8906 776.7313,32.0469 776.8094,32.2031 C776.9656,32.4531 777.2469,32.6094 777.5438,32.6094 C777.7938,32.6094 778.0594,32.4688 778.2156,32.25 C778.3406,32.0938 778.3719,31.9375 778.3719,31.4844 L778.3719,29.5625 C778.3719,29.4063 778.3719,29.3594 778.3563,29.2031 C778.2938,28.7344 777.9813,28.4219 777.5281,28.4219 C777.2781,28.4219 777.0125,28.5625 776.8406,28.7813 C776.7313,28.9531 776.7,29.1094 776.7,29.5625 L776.7,29.6875 L775.2469,29.6875 L775.2469,27.2813 L779.2313,27.2813 L779.2313,28.1406 C779.2313,28.5469 779.2625,28.7188 779.3406,28.875 C779.5125,29.125 779.7938,29.2813 780.075,29.2813 C780.3406,29.2813 780.6063,29.1406 780.7781,28.9219 C780.8875,28.75 780.9188,28.6094 780.9188,28.1406 L780.9188,25.5938 L773.2938,25.5938 C772.8563,25.5938 772.7313,25.6094 772.575,25.7031 C772.325,25.8594 772.1688,26.1563 772.1688,26.4375 C772.1688,26.7188 772.3094,26.9688 772.5281,27.1406 C772.6844,27.25 772.8719,27.2813 773.2938,27.2813 L773.5438,27.2813 L773.5438,33.7969 L773.2938,33.7969 C772.8875,33.7969 772.7313,33.8125 772.575,33.9219 C772.325,34.0938 772.1688,34.3594 772.1688,34.6563 C772.1688,34.9219 772.3094,35.1719 772.5281,35.3281 C772.6688,35.4531 772.9031,35.5 773.2938,35.5 L781.2938,35.5 L781.2938,32.9219 C781.2938,32.4844 781.2625,32.3438 781.1844,32.1875 C781.0125,31.9375 780.7313,31.7813 780.45,31.7813 C780.1844,31.7813 779.9188,31.8906 779.7469,32.1406 C779.6375,32.2969 779.6063,32.4375 779.6063,32.9219 L779.6063,33.7969 L775.2469,33.7969 L775.2469,31.375 Z "/><text fill="#000000" font-family="sans-serif" font-size="12" lengthAdjust="spacingAndGlyphs" textLength="37" x="790.55" y="34.6543">Status</text><line style="stroke: #A80036; stroke-width: 1.5;" x1="762" x2="830" y1="46.5" y2="46.5"/><text fill="#000000" font-family="sans-serif" font-size="11" lengthAdjust="spacingAndGlyphs" textLength="29" x="767" y="60.7104">PAST</text><text fill="#000000" font-family="sans-serif" font-size="11" lengthAdjust="spacingAndGlyphs" textLength="51" x="767" y="73.5151">RUNNING</text><text fill="#000000" font-family="sans-serif" font-size="11" lengthAdjust="spacingAndGlyphs" textLength="43" x="767" y="86.3198">FUTURE</text><text fill="#000000" font-family="sans-serif" font-size="11" lengthAdjust="spacingAndGlyphs" textLength="58" x="767" y="99.1245">CANCELLE</text><!--MD5=[7a49092ecea3fe30cd6d0e6438818306]
class TournamentType--><rect fill="#FEFECE" filter="url(#f1a3jznw53bp40)" height="104.0234" id="TournamentType" style="stroke: #A80036; stroke-width: 1.5;" width="271" x="866.5" y="8"/><ellipse cx="947.25" cy="24" fill="#EB937F" rx="11" ry="11" style="stroke: #A80036; stroke-width: 1.0;"/><path d="M946.0469,24.875 L947.5,24.875 L947.5,24.9844 C947.5,25.3906 947.5313,25.5469 947.6094,25.7031 C947.7656,25.9531 948.0469,26.1094 948.3438,26.1094 C948.5938,26.1094 948.8594,25.9688 949.0156,25.75 C949.1406,25.5938 949.1719,25.4375 949.1719,24.9844 L949.1719,23.0625 C949.1719,22.9063 949.1719,22.8594 949.1563,22.7031 C949.0938,22.2344 948.7813,21.9219 948.3281,21.9219 C948.0781,21.9219 947.8125,22.0625 947.6406,22.2813 C947.5313,22.4531 947.5,22.6094 947.5,23.0625 L947.5,23.1875 L946.0469,23.1875 L946.0469,20.7813 L950.0313,20.7813 L950.0313,21.6406 C950.0313,22.0469 950.0625,22.2188 950.1406,22.375 C950.3125,22.625 950.5938,22.7813 950.875,22.7813 C951.1406,22.7813 951.4063,22.6406 951.5781,22.4219 C951.6875,22.25 951.7188,22.1094 951.7188,21.6406 L951.7188,19.0938 L944.0938,19.0938 C943.6563,19.0938 943.5313,19.1094 943.375,19.2031 C943.125,19.3594 942.9688,19.6563 942.9688,19.9375 C942.9688,20.2188 943.1094,20.4688 943.3281,20.6406 C943.4844,20.75 943.6719,20.7813 944.0938,20.7813 L944.3438,20.7813 L944.3438,27.2969 L944.0938,27.2969 C943.6875,27.2969 943.5313,27.3125 943.375,27.4219 C943.125,27.5938 942.9688,27.8594 942.9688,28.1563 C942.9688,28.4219 943.1094,28.6719 943.3281,28.8281 C943.4688,28.9531 943.7031,29 944.0938,29 L952.0938,29 L952.0938,26.4219 C952.0938,25.9844 952.0625,25.8438 951.9844,25.6875 C951.8125,25.4375 951.5313,25.2813 951.25,25.2813 C950.9844,25.2813 950.7188,25.3906 950.5469,25.6406 C950.4375,25.7969 950.4063,25.9375 950.4063,26.4219 L950.4063,27.2969 L946.0469,27.2969 L946.0469,24.875 Z "/><text fill="#000000" font-family="sans-serif" font-size="12" lengthAdjust="spacingAndGlyphs" textLength="101" x="967.75" y="28.1543">TournamentType</text><line style="stroke: #A80036; stroke-width: 1.5;" x1="867.5" x2="1136.5" y1="40" y2="40"/><text fill="#000000" font-family="sans-serif" font-size="11" lengthAdjust="spacingAndGlyphs" textLength="116" x="872.5" y="54.2104">SIMPLE_ELIMINATION</text><text fill="#000000" font-family="sans-serif" font-size="11" lengthAdjust="spacingAndGlyphs" textLength="124" x="872.5" y="67.0151">DOUBLE_ELIMINATION</text><text fill="#000000" font-family="sans-serif" font-size="11" lengthAdjust="spacingAndGlyphs" textLength="251" x="872.5" y="79.8198">SIMPLE_ELIMINATION_WITH_QUALIFICATIONS</text><text fill="#000000" font-family="sans-serif" font-size="11" lengthAdjust="spacingAndGlyphs" textLength="259" x="872.5" y="92.6245">DOUBLE_ELIMINATION_WITH_QUALIFICATIONS</text><text fill="#000000" font-family="sans-serif" font-size="11" lengthAdjust="spacingAndGlyphs" textLength="122" x="872.5" y="105.4292">QUALIFICATION_ONLY</text><!--MD5=[dd163b430fef0131ab63d34c5955cc01]
class KnockoutMatchType--><rect fill="#FEFECE" filter="url(#f1a3jznw53bp40)" height="65.6094" id="KnockoutMatchType" style="stroke: #A80036; stroke-width: 1.5;" width="153" x="719.5" y="189"/><ellipse cx="734.5" cy="205" fill="#EB937F" rx="11" ry="11" style="stroke: #A80036; stroke-width: 1.0;"/><path d="M733.2969,205.875 L734.75,205.875 L734.75,205.9844 C734.75,206.3906 734.7813,206.5469 734.8594,206.7031 C735.0156,206.9531 735.2969,207.1094 735.5938,207.1094 C735.8438,207.1094 736.1094,206.9688 736.2656,206.75 C736.3906,206.5938 736.4219,206.4375 736.4219,205.9844 L736.4219,204.0625 C736.4219,203.9063 736.4219,203.8594 736.4063,203.7031 C736.3438,203.2344 736.0313,202.9219 735.5781,202.9219 C735.3281,202.9219 735.0625,203.0625 734.8906,203.2813 C734.7813,203.4531 734.75,203.6094 734.75,204.0625 L734.75,204.1875 L733.2969,204.1875 L733.2969,201.7813 L737.2813,201.7813 L737.2813,202.6406 C737.2813,203.0469 737.3125,203.2188 737.3906,203.375 C737.5625,203.625 737.8438,203.7813 738.125,203.7813 C738.3906,203.7813 738.6563,203.6406 738.8281,203.4219 C738.9375,203.25 738.9688,203.1094 738.9688,202.6406 L738.9688,200.0938 L731.3438,200.0938 C730.9063,200.0938 730.7813,200.1094 730.625,200.2031 C730.375,200.3594 730.2188,200.6563 730.2188,200.9375 C730.2188,201.2188 730.3594,201.4688 730.5781,201.6406 C730.7344,201.75 730.9219,201.7813 731.3438,201.7813 L731.5938,201.7813 L731.5938,208.2969 L731.3438,208.2969 C730.9375,208.2969 730.7813,208.3125 730.625,208.4219 C730.375,208.5938 730.2188,208.8594 730.2188,209.1563 C730.2188,209.4219 730.3594,209.6719 730.5781,209.8281 C730.7188,209.9531 730.9531,210 731.3438,210 L739.3438,210 L739.3438,207.4219 C739.3438,206.9844 739.3125,206.8438 739.2344,206.6875 C739.0625,206.4375 738.7813,206.2813 738.5,206.2813 C738.2344,206.2813 737.9688,206.3906 737.7969,206.6406 C737.6875,206.7969 737.6563,206.9375 737.6563,207.4219 L737.6563,208.2969 L733.2969,208.2969 L733.2969,205.875 Z "/><text fill="#000000" font-family="sans-serif" font-size="12" lengthAdjust="spacingAndGlyphs" textLength="121" x="748.5" y="209.1543">KnockoutMatchType</text><line style="stroke: #A80036; stroke-width: 1.5;" x1="720.5" x2="871.5" y1="221" y2="221"/><text fill="#000000" font-family="sans-serif" font-size="11" lengthAdjust="spacingAndGlyphs" textLength="44" x="725.5" y="235.2104">WINNER</text><text fill="#000000" font-family="sans-serif" font-size="11" lengthAdjust="spacingAndGlyphs" textLength="37" x="725.5" y="248.0151">LOSER</text><!--MD5=[2cb47ba637a0d19583e6199456f6ad0b]
class Player--><rect fill="#FEFECE" filter="url(#f1a3jznw53bp40)" height="65.6094" id="Player" style="stroke: #A80036; stroke-width: 1.5;" width="88" x="6" y="335"/><ellipse cx="30" cy="351" fill="#ADD1B2" rx="11" ry="11" style="stroke: #A80036; stroke-width: 1.0;"/><path d="M32.3438,346.6719 C31.4063,346.2344 30.8125,346.0938 29.9375,346.0938 C27.3125,346.0938 25.3125,348.1719 25.3125,350.8906 L25.3125,352.0156 C25.3125,354.5938 27.4219,356.4844 30.3125,356.4844 C31.5313,356.4844 32.6875,356.1875 33.4375,355.6406 C34.0156,355.2344 34.3438,354.7813 34.3438,354.3906 C34.3438,353.9375 33.9531,353.5469 33.4844,353.5469 C33.2656,353.5469 33.0625,353.625 32.875,353.8125 C32.4219,354.2969 32.4219,354.2969 32.2344,354.3906 C31.8125,354.6563 31.125,354.7813 30.3594,354.7813 C28.3125,354.7813 27.0156,353.6875 27.0156,351.9844 L27.0156,350.8906 C27.0156,349.1094 28.2656,347.7969 30,347.7969 C30.5781,347.7969 31.1875,347.9531 31.6563,348.2031 C32.1406,348.4844 32.3125,348.7031 32.4063,349.1094 C32.4688,349.5156 32.5,349.6406 32.6406,349.7656 C32.7813,349.9063 33.0156,350.0156 33.2344,350.0156 C33.5,350.0156 33.7656,349.875 33.9375,349.6563 C34.0469,349.5 34.0781,349.3125 34.0781,348.8906 L34.0781,347.4688 C34.0781,347.0313 34.0625,346.9063 33.9688,346.75 C33.8125,346.4844 33.5313,346.3438 33.2344,346.3438 C32.9375,346.3438 32.7344,346.4375 32.5156,346.75 L32.3438,346.6719 Z "/><text fill="#000000" font-family="sans-serif" font-size="12" lengthAdjust="spacingAndGlyphs" textLength="36" x="46" y="355.1543">Player</text><line style="stroke: #A80036; stroke-width: 1.5;" x1="7" x2="93" y1="367" y2="367"/><text fill="#000000" font-family="sans-serif" font-size="11" lengthAdjust="spacingAndGlyphs" textLength="76" x="12" y="381.2104">player_id : PK</text><text fill="#000000" font-family="sans-serif" font-size="11" lengthAdjust="spacingAndGlyphs" textLength="33" x="12" y="394.0151">name</text><!--MD5=[dfb0845b8492ffe07b1ce50e003034d7]
class Team--><rect fill="#FEFECE" filter="url(#f1a3jznw53bp40)" height="65.6094" id="Team" style="stroke: #A80036; stroke-width: 1.5;" width="82" x="206" y="335"/><ellipse cx="228.65" cy="351" fill="#ADD1B2" rx="11" ry="11" style="stroke: #A80036; stroke-width: 1.0;"/><path d="M230.9938,346.6719 C230.0563,346.2344 229.4625,346.0938 228.5875,346.0938 C225.9625,346.0938 223.9625,348.1719 223.9625,350.8906 L223.9625,352.0156 C223.9625,354.5938 226.0719,356.4844 228.9625,356.4844 C230.1813,356.4844 231.3375,356.1875 232.0875,355.6406 C232.6656,355.2344 232.9938,354.7813 232.9938,354.3906 C232.9938,353.9375 232.6031,353.5469 232.1344,353.5469 C231.9156,353.5469 231.7125,353.625 231.525,353.8125 C231.0719,354.2969 231.0719,354.2969 230.8844,354.3906 C230.4625,354.6563 229.775,354.7813 229.0094,354.7813 C226.9625,354.7813 225.6656,353.6875 225.6656,351.9844 L225.6656,350.8906 C225.6656,349.1094 226.9156,347.7969 228.65,347.7969 C229.2281,347.7969 229.8375,347.9531 230.3063,348.2031 C230.7906,348.4844 230.9625,348.7031 231.0563,349.1094 C231.1188,349.5156 231.15,349.6406 231.2906,349.7656 C231.4313,349.9063 231.6656,350.0156 231.8844,350.0156 C232.15,350.0156 232.4156,349.875 232.5875,349.6563 C232.6969,349.5 232.7281,349.3125 232.7281,348.8906 L232.7281,347.4688 C232.7281,347.0313 232.7125,346.9063 232.6188,346.75 C232.4625,346.4844 232.1813,346.3438 231.8844,346.3438 C231.5875,346.3438 231.3844,346.4375 231.1656,346.75 L230.9938,346.6719 Z "/><text fill="#000000" font-family="sans-serif" font-size="12" lengthAdjust="spacingAndGlyphs" textLength="33" x="244.35" y="355.1543">Team</text><line style="stroke: #A80036; stroke-width: 1.5;" x1="207" x2="287" y1="367" y2="367"/><text fill="#000000" font-family="sans-serif" font-size="11" lengthAdjust="spacingAndGlyphs" textLength="70" x="212" y="381.2104">team_id : PK</text><text fill="#000000" font-family="sans-serif" font-size="11" lengthAdjust="spacingAndGlyphs" textLength="33" x="212" y="394.0151">name</text><!--MD5=[5f0899136ed8f523b18ed05779c24112]
class Match--><rect fill="#FEFECE" filter="url(#f1a3jznw53bp40)" height="78.4141" id="Match" style="stroke: #A80036; stroke-width: 1.5;" width="89" x="459.5" y="21"/><ellipse cx="484.4" cy="37" fill="#ADD1B2" rx="11" ry="11" style="stroke: #A80036; stroke-width: 1.0;"/><path d="M486.7438,32.6719 C485.8063,32.2344 485.2125,32.0938 484.3375,32.0938 C481.7125,32.0938 479.7125,34.1719 479.7125,36.8906 L479.7125,38.0156 C479.7125,40.5938 481.8219,42.4844 484.7125,42.4844 C485.9313,42.4844 487.0875,42.1875 487.8375,41.6406 C488.4156,41.2344 488.7438,40.7813 488.7438,40.3906 C488.7438,39.9375 488.3531,39.5469 487.8844,39.5469 C487.6656,39.5469 487.4625,39.625 487.275,39.8125 C486.8219,40.2969 486.8219,40.2969 486.6344,40.3906 C486.2125,40.6563 485.525,40.7813 484.7594,40.7813 C482.7125,40.7813 481.4156,39.6875 481.4156,37.9844 L481.4156,36.8906 C481.4156,35.1094 482.6656,33.7969 484.4,33.7969 C484.9781,33.7969 485.5875,33.9531 486.0563,34.2031 C486.5406,34.4844 486.7125,34.7031 486.8063,35.1094 C486.8688,35.5156 486.9,35.6406 487.0406,35.7656 C487.1813,35.9063 487.4156,36.0156 487.6344,36.0156 C487.9,36.0156 488.1656,35.875 488.3375,35.6563 C488.4469,35.5 488.4781,35.3125 488.4781,34.8906 L488.4781,33.4688 C488.4781,33.0313 488.4625,32.9063 488.3688,32.75 C488.2125,32.4844 487.9313,32.3438 487.6344,32.3438 C487.3375,32.3438 487.1344,32.4375 486.9156,32.75 L486.7438,32.6719 Z "/><text fill="#000000" font-family="sans-serif" font-size="12" lengthAdjust="spacingAndGlyphs" textLength="35" x="500.6" y="41.1543">Match</text><line style="stroke: #A80036; stroke-width: 1.5;" x1="460.5" x2="547.5" y1="53" y2="53"/><text fill="#000000" font-family="sans-serif" font-size="11" lengthAdjust="spacingAndGlyphs" textLength="71" x="465.5" y="67.2104">match_id :PK</text><text fill="#000000" font-family="sans-serif" font-size="11" lengthAdjust="spacingAndGlyphs" textLength="26" x="465.5" y="80.0151">date</text><text fill="#000000" font-family="sans-serif" font-size="11" lengthAdjust="spacingAndGlyphs" textLength="77" x="465.5" y="92.8198">status :Status</text><!--MD5=[7232e2d58408c7fd093bd9cf3b7965d8]
class KnockoutMatch--><rect fill="#FEFECE" filter="url(#f1a3jznw53bp40)" height="65.6094" id="KnockoutMatch" style="stroke: #A80036; stroke-width: 1.5;" width="158" x="626" y="335"/><ellipse cx="656.75" cy="351" fill="#ADD1B2" rx="11" ry="11" style="stroke: #A80036; stroke-width: 1.0;"/><path d="M659.0938,346.6719 C658.1563,346.2344 657.5625,346.0938 656.6875,346.0938 C654.0625,346.0938 652.0625,348.1719 652.0625,350.8906 L652.0625,352.0156 C652.0625,354.5938 654.1719,356.4844 657.0625,356.4844 C658.2813,356.4844 659.4375,356.1875 660.1875,355.6406 C660.7656,355.2344 661.0938,354.7813 661.0938,354.3906 C661.0938,353.9375 660.7031,353.5469 660.2344,353.5469 C660.0156,353.5469 659.8125,353.625 659.625,353.8125 C659.1719,354.2969 659.1719,354.2969 658.9844,354.3906 C658.5625,354.6563 657.875,354.7813 657.1094,354.7813 C655.0625,354.7813 653.7656,353.6875 653.7656,351.9844 L653.7656,350.8906 C653.7656,349.1094 655.0156,347.7969 656.75,347.7969 C657.3281,347.7969 657.9375,347.9531 658.4063,348.2031 C658.8906,348.4844 659.0625,348.7031 659.1563,349.1094 C659.2188,349.5156 659.25,349.6406 659.3906,349.7656 C659.5313,349.9063 659.7656,350.0156 659.9844,350.0156 C660.25,350.0156 660.5156,349.875 660.6875,349.6563 C660.7969,349.5 660.8281,349.3125 660.8281,348.8906 L660.8281,347.4688 C660.8281,347.0313 660.8125,346.9063 660.7188,346.75 C660.5625,346.4844 660.2813,346.3438 659.9844,346.3438 C659.6875,346.3438 659.4844,346.4375 659.2656,346.75 L659.0938,346.6719 Z "/><text fill="#000000" font-family="sans-serif" font-size="12" lengthAdjust="spacingAndGlyphs" textLength="91" x="674.25" y="355.1543">KnockoutMatch</text><line style="stroke: #A80036; stroke-width: 1.5;" x1="627" x2="783" y1="367" y2="367"/><text fill="#000000" font-family="sans-serif" font-size="11" lengthAdjust="spacingAndGlyphs" textLength="82" x="632" y="381.2104">round_number</text><text fill="#000000" font-family="sans-serif" font-size="11" lengthAdjust="spacingAndGlyphs" textLength="146" x="632" y="394.0151">type :KnockoutMatchType</text><!--MD5=[6d8f0a6e1e7d8fe165cf76fabf6d6e67]
class QualificationMatch--><rect fill="#FEFECE" filter="url(#f1a3jznw53bp40)" height="52.8047" id="QualificationMatch" style="stroke: #A80036; stroke-width: 1.5;" width="140" x="434" y="195.5"/><ellipse cx="449" cy="211.5" fill="#ADD1B2" rx="11" ry="11" style="stroke: #A80036; stroke-width: 1.0;"/><path d="M451.3438,207.1719 C450.4063,206.7344 449.8125,206.5938 448.9375,206.5938 C446.3125,206.5938 444.3125,208.6719 444.3125,211.3906 L444.3125,212.5156 C444.3125,215.0938 446.4219,216.9844 449.3125,216.9844 C450.5313,216.9844 451.6875,216.6875 452.4375,216.1406 C453.0156,215.7344 453.3438,215.2813 453.3438,214.8906 C453.3438,214.4375 452.9531,214.0469 452.4844,214.0469 C452.2656,214.0469 452.0625,214.125 451.875,214.3125 C451.4219,214.7969 451.4219,214.7969 451.2344,214.8906 C450.8125,215.1563 450.125,215.2813 449.3594,215.2813 C447.3125,215.2813 446.0156,214.1875 446.0156,212.4844 L446.0156,211.3906 C446.0156,209.6094 447.2656,208.2969 449,208.2969 C449.5781,208.2969 450.1875,208.4531 450.6563,208.7031 C451.1406,208.9844 451.3125,209.2031 451.4063,209.6094 C451.4688,210.0156 451.5,210.1406 451.6406,210.2656 C451.7813,210.4063 452.0156,210.5156 452.2344,210.5156 C452.5,210.5156 452.7656,210.375 452.9375,210.1563 C453.0469,210 453.0781,209.8125 453.0781,209.3906 L453.0781,207.9688 C453.0781,207.5313 453.0625,207.4063 452.9688,207.25 C452.8125,206.9844 452.5313,206.8438 452.2344,206.8438 C451.9375,206.8438 451.7344,206.9375 451.5156,207.25 L451.3438,207.1719 Z "/><text fill="#000000" font-family="sans-serif" font-size="12" lengthAdjust="spacingAndGlyphs" textLength="108" x="463" y="215.6543">QualificationMatch</text><line style="stroke: #A80036; stroke-width: 1.5;" x1="435" x2="573" y1="227.5" y2="227.5"/><text fill="#000000" font-family="sans-serif" font-size="11" lengthAdjust="spacingAndGlyphs" textLength="82" x="440" y="241.7104">round_number</text><!--MD5=[a4b4d324fd2684dbb9bd6a0eaf7882b2]
class Tournament--><rect fill="#FEFECE" filter="url(#f1a3jznw53bp40)" height="104.0234" id="Tournament" style="stroke: #A80036; stroke-width: 1.5;" width="173" x="417.5" y="316"/><ellipse cx="464.25" cy="332" fill="#ADD1B2" rx="11" ry="11" style="stroke: #A80036; stroke-width: 1.0;"/><path d="M466.5938,327.6719 C465.6563,327.2344 465.0625,327.0938 464.1875,327.0938 C461.5625,327.0938 459.5625,329.1719 459.5625,331.8906 L459.5625,333.0156 C459.5625,335.5938 461.6719,337.4844 464.5625,337.4844 C465.7813,337.4844 466.9375,337.1875 467.6875,336.6406 C468.2656,336.2344 468.5938,335.7813 468.5938,335.3906 C468.5938,334.9375 468.2031,334.5469 467.7344,334.5469 C467.5156,334.5469 467.3125,334.625 467.125,334.8125 C466.6719,335.2969 466.6719,335.2969 466.4844,335.3906 C466.0625,335.6563 465.375,335.7813 464.6094,335.7813 C462.5625,335.7813 461.2656,334.6875 461.2656,332.9844 L461.2656,331.8906 C461.2656,330.1094 462.5156,328.7969 464.25,328.7969 C464.8281,328.7969 465.4375,328.9531 465.9063,329.2031 C466.3906,329.4844 466.5625,329.7031 466.6563,330.1094 C466.7188,330.5156 466.75,330.6406 466.8906,330.7656 C467.0313,330.9063 467.2656,331.0156 467.4844,331.0156 C467.75,331.0156 468.0156,330.875 468.1875,330.6563 C468.2969,330.5 468.3281,330.3125 468.3281,329.8906 L468.3281,328.4688 C468.3281,328.0313 468.3125,327.9063 468.2188,327.75 C468.0625,327.4844 467.7813,327.3438 467.4844,327.3438 C467.1875,327.3438 466.9844,327.4375 466.7656,327.75 L466.5938,327.6719 Z "/><text fill="#000000" font-family="sans-serif" font-size="12" lengthAdjust="spacingAndGlyphs" textLength="71" x="484.75" y="336.1543">Tournament</text><line style="stroke: #A80036; stroke-width: 1.5;" x1="418.5" x2="589.5" y1="348" y2="348"/><text fill="#000000" font-family="sans-serif" font-size="11" lengthAdjust="spacingAndGlyphs" textLength="106" x="423.5" y="362.2104">tournament_id : PK</text><text fill="#000000" font-family="sans-serif" font-size="11" lengthAdjust="spacingAndGlyphs" textLength="131" x="423.5" y="375.0151">type :TournamentType</text><text fill="#000000" font-family="sans-serif" font-size="11" lengthAdjust="spacingAndGlyphs" textLength="77" x="423.5" y="387.8198">status :Status</text><text fill="#000000" font-family="sans-serif" font-size="11" lengthAdjust="spacingAndGlyphs" textLength="143" x="423.5" y="400.6245">number_of_group_rounds</text><text fill="#000000" font-family="sans-serif" font-size="11" lengthAdjust="spacingAndGlyphs" textLength="161" x="423.5" y="413.4292">number_of_knockout_rounds</text><!--MD5=[6379d04689498f91b6a0b60fdeb7e3de]
class Contestant--><rect fill="#FEFECE" filter="url(#f1a3jznw53bp40)" height="52.8047" id="Contestant" style="stroke: #A80036; stroke-width: 1.5;" width="96" x="298" y="195.5"/><ellipse cx="313" cy="211.5" fill="#ADD1B2" rx="11" ry="11" style="stroke: #A80036; stroke-width: 1.0;"/><path d="M315.3438,207.1719 C314.4063,206.7344 313.8125,206.5938 312.9375,206.5938 C310.3125,206.5938 308.3125,208.6719 308.3125,211.3906 L308.3125,212.5156 C308.3125,215.0938 310.4219,216.9844 313.3125,216.9844 C314.5313,216.9844 315.6875,216.6875 316.4375,216.1406 C317.0156,215.7344 317.3438,215.2813 317.3438,214.8906 C317.3438,214.4375 316.9531,214.0469 316.4844,214.0469 C316.2656,214.0469 316.0625,214.125 315.875,214.3125 C315.4219,214.7969 315.4219,214.7969 315.2344,214.8906 C314.8125,215.1563 314.125,215.2813 313.3594,215.2813 C311.3125,215.2813 310.0156,214.1875 310.0156,212.4844 L310.0156,211.3906 C310.0156,209.6094 311.2656,208.2969 313,208.2969 C313.5781,208.2969 314.1875,208.4531 314.6563,208.7031 C315.1406,208.9844 315.3125,209.2031 315.4063,209.6094 C315.4688,210.0156 315.5,210.1406 315.6406,210.2656 C315.7813,210.4063 316.0156,210.5156 316.2344,210.5156 C316.5,210.5156 316.7656,210.375 316.9375,210.1563 C317.0469,210 317.0781,209.8125 317.0781,209.3906 L317.0781,207.9688 C317.0781,207.5313 317.0625,207.4063 316.9688,207.25 C316.8125,206.9844 316.5313,206.8438 316.2344,206.8438 C315.9375,206.8438 315.7344,206.9375 315.5156,207.25 L315.3438,207.1719 Z "/><text fill="#000000" font-family="sans-serif" font-size="12" lengthAdjust="spacingAndGlyphs" textLength="64" x="327" y="215.6543">Contestant</text><line style="stroke: #A80036; stroke-width: 1.5;" x1="299" x2="393" y1="227.5" y2="227.5"/><text fill="#000000" font-family="sans-serif" font-size="11" lengthAdjust="spacingAndGlyphs" textLength="31" x="304" y="241.7104">score</text><ellipse cx="261" cy="222" fill="#000000" rx="2" ry="2" style="stroke: none; stroke-width: 1.0;"/><!--MD5=[ade82235061de68b0c8bb3819916c445]
reverse link Match to KnockoutMatch--><path d="M542.368,115.862 C557.957,138.396 576.025,164.826 592,189 C625.4,239.541 662.842,299.127 685.141,334.941 " fill="none" id="Match&lt;-KnockoutMatch" style="stroke: #A80036; stroke-width: 1.0;"/><polygon fill="none" points="536.4,119.54,530.746,99.118,547.901,111.557,536.4,119.54" style="stroke: #A80036; stroke-width: 1.0;"/><!--MD5=[72e69a2071e0d9cae264a3565878da4d]
reverse link Match to QualificationMatch--><path d="M504,119.351 C504,145.512 504,175.012 504,195.466 " fill="none" id="Match&lt;-QualificationMatch" style="stroke: #A80036; stroke-width: 1.0;"/><polygon fill="none" points="497,119.324,504,99.324,511,119.324,497,119.324" style="stroke: #A80036; stroke-width: 1.0;"/><!--MD5=[9d1d1ae57915ae04c24c24c9c6ba083a]
reverse link KnockoutMatch to KnockoutMatch--><path d="M797.188,354.2103 C810.243,356.4448 819,361.0413 819,368 C819,377.0889 804.061,382.1481 784.118,383.1777 " fill="none" id="KnockoutMatch&lt;-KnockoutMatch" style="stroke: #A80036; stroke-width: 1.0;"/><polygon fill="#FFFFFF" points="784.118,352.8223,789.6615,357.4342,796.0508,354.0909,790.5072,349.479,784.118,352.8223" style="stroke: #A80036; stroke-width: 1.0;"/><text fill="#000000" font-family="sans-serif" font-size="13" lengthAdjust="spacingAndGlyphs" textLength="99" x="825" y="372.5669">descends_from</text><text fill="#000000" font-family="sans-serif" font-size="13" lengthAdjust="spacingAndGlyphs" textLength="8" x="792.0402" y="381.0013">2</text><!--MD5=[3e4705e52f6ea3a36b44a21a43aec0e0]
link Player to Team--><path d="M94.2106,368 C127.676,368 173.3,368 205.962,368 " fill="none" id="Player-Team" style="stroke: #A80036; stroke-width: 1.0;"/><text fill="#000000" font-family="sans-serif" font-size="13" lengthAdjust="spacingAndGlyphs" textLength="75" x="112.5" y="361.0669">member_of</text><text fill="#000000" font-family="sans-serif" font-size="13" lengthAdjust="spacingAndGlyphs" textLength="24" x="102.1152" y="381.1584">0..2</text><text fill="#000000" font-family="sans-serif" font-size="13" lengthAdjust="spacingAndGlyphs" textLength="7" x="191.0287" y="363.7776">*</text><!--MD5=[5385f8d51fdf81981fd4179dac9b6ebf]
link Match to apoint27729--><path d="M459.184,78.379 C410.515,98.985 332.692,137.179 280,189 C269.866,198.967 263.118,215.436 261.42,219.871 " fill="none" id="Match-apoint27729" style="stroke: #A80036; stroke-width: 1.0;"/><text fill="#000000" font-family="sans-serif" font-size="13" lengthAdjust="spacingAndGlyphs" textLength="93" x="336" y="155.0669">participates_in</text><text fill="#000000" font-family="sans-serif" font-size="13" lengthAdjust="spacingAndGlyphs" textLength="7" x="444.4836" y="77.1573">*</text><!--MD5=[bd121247cae4ab1dc64095a51b9e4a39]
link apoint27729 to Team--><path d="M260.879,224.245 C259.954,233.756 253.941,295.606 250.139,334.7116 " fill="none" id="apoint27729-Team" style="stroke: #A80036; stroke-width: 1.0;"/><text fill="#000000" font-family="sans-serif" font-size="13" lengthAdjust="spacingAndGlyphs" textLength="8" x="241.9749" y="324.0536">2</text><!--MD5=[5dc91f1e511ede74d262ef5c16d9aa5e]
link apoint27729 to Contestant--><path d="M263.324,222 C274.843,222 286.361,222 297.88,222 " fill="none" id="apoint27729-Contestant" style="stroke: #A80036; stroke-width: 1.0; stroke-dasharray: 7.0,7.0;"/><!--MD5=[0d19528869bea1b8174ff9dae3c1b17d]
link Team to Tournament--><path d="M288.007,368 C319.268,368 363.687,368 404.122,368 " fill="none" id="Team-&gt;Tournament" style="stroke: #A80036; stroke-width: 1.0;"/><polygon fill="#FFFFFF" points="417.373,368,411.373,364,405.373,368,411.373,372,417.373,368" style="stroke: #A80036; stroke-width: 1.0;"/><text fill="#000000" font-family="sans-serif" font-size="13" lengthAdjust="spacingAndGlyphs" textLength="93" x="306.25" y="361.0669">participates_in</text><!--MD5=[a4ba91846eed228ef4fd4196bf037918]
link QualificationMatch to Tournament--><path d="M504,248.744 C504,263.862 504,283.698 504,302.794 " fill="none" id="QualificationMatch-&gt;Tournament" style="stroke: #A80036; stroke-width: 1.0;"/><polygon fill="#A80036" points="504,315.829,508,309.829,504,303.829,500,309.829,504,315.829" style="stroke: #A80036; stroke-width: 1.0;"/><!--MD5=[6d78c7af60ff44a7cf3d48f78af3585c]
reverse link Tournament to KnockoutMatch--><path d="M603.813,368 C611.064,368 618.316,368 625.567,368 " fill="none" id="Tournament&lt;-KnockoutMatch" style="stroke: #A80036; stroke-width: 1.0;"/><polygon fill="#A80036" points="590.76,368,596.76,372,602.76,368,596.76,364,590.76,368" style="stroke: #A80036; stroke-width: 1.0;"/><!--MD5=[ff32a4c54263880774b611c5947a2ebd]
link Status to TournamentType--><!--MD5=[d51a7472d873020e5b835a0998145cdf]
link Status to KnockoutMatchType--><!--MD5=[603af6f242e40ffe6ffbac6c3198daf2]
@startuml
enum Status {
  PAST
  RUNNING
  FUTURE
  CANCELLE
}

enum TournamentType {
  SIMPLE_ELIMINATION
  DOUBLE_ELIMINATION
  SIMPLE_ELIMINATION_WITH_QUALIFICATIONS
  DOUBLE_ELIMINATION_WITH_QUALIFICATIONS
  QUALIFICATION_ONLY
}

enum KnockoutMatchType {
  WINNER
  LOSER
} 

class Player {
  player_id : PK
  name
}

class Team {
  team_id : PK
  name
}

class Match {
  match_id :PK
  date
  status :Status
}

class KnockoutMatch {
  round_number
  type :KnockoutMatchType
}

class QualificationMatch {
  round_number
}


class Tournament {
  tournament_id : PK
  type :TournamentType
  status :Status
  number_of_group_rounds
  number_of_knockout_rounds
}

class Contestant {
  score
}

Match <|- - KnockoutMatch
Match <|- - QualificationMatch
KnockoutMatch o- - "2" KnockoutMatch : descends_from

Player "0..2" - "*" Team : member_of

Match "*" - - "2" Team : participates_in
(Team, Match) .. Contestant 

Team -o Tournament : participates_in

QualificationMatch - -* Tournament

Tournament *- KnockoutMatch

hide empty members
@enduml

PlantUML version 1.2020.10(Sun May 17 09:35:57 UTC 2020)
(GPL source distribution)
Java Runtime: Java(TM) SE Runtime Environment
JVM: Java HotSpot(TM) 64-Bit Server VM
Java Version: 14.0.1+7
Operating System: Linux
Default Encoding: UTF-8
Language: en
Country: US
--></g></svg>